<svg width="28" height="28" viewBox="0 0 28 28" fill="none" xmlns="http://www.w3.org/2000/svg">
<g id="tabler:bolt">
<path id="Vector (Stroke)" fill-rule="evenodd" clip-rule="evenodd" d="M15.5274 2.39125C16.008 2.54752 16.3333 2.9954 16.3333 3.50073V10.5007H22.1666C22.6054 10.5007 23.0071 10.747 23.2063 11.138C23.4054 11.529 23.3683 11.9987 23.1102 12.3536L13.7768 25.1869C13.4796 25.5956 12.9531 25.7665 12.4725 25.6102C11.992 25.4539 11.6666 25.0061 11.6666 24.5007V17.5007H5.8333C5.39449 17.5007 4.99279 17.2545 4.79366 16.8635C4.59454 16.4724 4.63168 16.0027 4.88977 15.6479L14.2231 2.81453C14.5203 2.40585 15.0469 2.23498 15.5274 2.39125ZM8.12436 15.1674H12.8333C13.4776 15.1674 14 15.6897 14 16.3341V20.913L19.8756 12.8341H15.1666C14.5223 12.8341 14 12.3117 14 11.6674V7.08844L8.12436 15.1674Z" fill="#1767FA"/>
</g>
</svg>
