<svg width="28" height="28" viewBox="0 0 28 28" fill="none" xmlns="http://www.w3.org/2000/svg">
<g id="tabler:book-2">
<g id="Group">
<path id="Vector (Stroke)" fill-rule="evenodd" clip-rule="evenodd" d="M7 4.66667C6.64638 4.66667 6.30724 4.80714 6.05719 5.05719C5.80714 5.30724 5.66667 5.64638 5.66667 6V22C5.66667 22.3536 5.80714 22.6928 6.05719 22.9428C6.30724 23.1929 6.64638 23.3333 7 23.3333H21.6667V4.66667H7ZM4.17157 3.17157C4.92172 2.42143 5.93913 2 7 2H23C23.7364 2 24.3333 2.59695 24.3333 3.33333V24.6667C24.3333 25.403 23.7364 26 23 26H7C5.93913 26 4.92172 25.5786 4.17157 24.8284C3.42143 24.0783 3 23.0609 3 22V6C3 4.93913 3.42143 3.92172 4.17157 3.17157Z" fill="#1767FA"/>
<path id="Vector (Stroke)_2" fill-rule="evenodd" clip-rule="evenodd" d="M8.33333 8.66536C8.33333 7.92898 8.93029 7.33203 9.66667 7.33203H17.6667C18.403 7.33203 19 7.92898 19 8.66536C19 9.40174 18.403 9.9987 17.6667 9.9987H9.66667C8.93029 9.9987 8.33333 9.40174 8.33333 8.66536ZM4.17157 19.1703C4.92172 18.4201 5.93913 17.9987 7 17.9987H23C23.7364 17.9987 24.3333 18.5957 24.3333 19.332C24.3333 20.0684 23.7364 20.6654 23 20.6654H7C6.64638 20.6654 6.30724 20.8058 6.05719 21.0559C5.80714 21.3059 5.66667 21.6451 5.66667 21.9987C5.66667 22.7351 5.06971 23.332 4.33333 23.332C3.59695 23.332 3 22.7351 3 21.9987C3 20.9378 3.42143 19.9204 4.17157 19.1703Z" fill="#1767FA"/>
</g>
</g>
</svg>
