<svg width="28" height="28" viewBox="0 0 28 28" fill="none" xmlns="http://www.w3.org/2000/svg">
<g id="lucide:file-pen">
<g id="Group">
<path id="Vector (Stroke)" fill-rule="evenodd" clip-rule="evenodd" d="M4.52513 2.19114C5.1815 1.53476 6.07174 1.16602 7 1.16602H17.5C17.8094 1.16602 18.1062 1.28893 18.325 1.50772L24.1583 7.34106C24.3771 7.55985 24.5 7.8566 24.5 8.16602V23.3327C24.5 24.2609 24.1313 25.1512 23.4749 25.8076C22.8185 26.4639 21.9283 26.8327 21 26.8327H14C13.3557 26.8327 12.8333 26.3103 12.8333 25.666C12.8333 25.0217 13.3557 24.4993 14 24.4993H21C21.3094 24.4993 21.6062 24.3764 21.825 24.1576C22.0437 23.9388 22.1667 23.6421 22.1667 23.3327V8.64926L17.0168 3.49935H7C6.69058 3.49935 6.39383 3.62227 6.17504 3.84106C5.95625 4.05985 5.83333 4.3566 5.83333 4.66602V16.3327C5.83333 16.977 5.311 17.4993 4.66667 17.4993C4.02233 17.4993 3.5 16.977 3.5 16.3327V4.66602C3.5 3.73776 3.86875 2.84752 4.52513 2.19114Z" fill="#1767FA"/>
<path id="Vector (Stroke)_2" fill-rule="evenodd" clip-rule="evenodd" d="M16.3334 1.16602C16.9777 1.16602 17.5 1.68835 17.5 2.33268V6.99935C17.5 7.30877 17.6229 7.60551 17.8417 7.82431C18.0605 8.0431 18.3573 8.16602 18.6667 8.16602H23.3334C23.9777 8.16602 24.5 8.68835 24.5 9.33268C24.5 9.97701 23.9777 10.4993 23.3334 10.4993H18.6667C17.7384 10.4993 16.8482 10.1306 16.1918 9.47422C15.5354 8.81785 15.1667 7.92761 15.1667 6.99935V2.33268C15.1667 1.68835 15.689 1.16602 16.3334 1.16602ZM13.8834 15.1411C13.5364 15.1411 13.2037 15.279 12.9583 15.5243L6.88682 21.5958L6.27012 24.0626L8.7369 23.4459L14.8084 17.3744C15.0537 17.1291 15.1916 16.7963 15.1916 16.4493C15.1916 16.1024 15.0537 15.7696 14.8084 15.5243C14.5631 15.279 14.2303 15.1411 13.8834 15.1411ZM11.3084 13.8744C11.9913 13.1915 12.9176 12.8078 13.8834 12.8078C14.8492 12.8078 15.7754 13.1915 16.4583 13.8744C17.1412 14.5573 17.5249 15.4836 17.5249 16.4493C17.5249 17.4151 17.1412 18.3414 16.4583 19.0243L10.1583 25.3243C10.0088 25.4738 9.82145 25.5799 9.61632 25.6312L4.94965 26.7978C4.55208 26.8972 4.13151 26.7807 3.84173 26.491C3.55196 26.2012 3.43547 25.7806 3.53486 25.3831L4.70153 20.7164C4.75281 20.5113 4.85888 20.3239 5.0084 20.1744L11.3084 13.8744Z" fill="#1767FA"/>
</g>
</g>
</svg>
