<svg width="20" height="20" viewBox="0 0 20 20" fill="none" xmlns="http://www.w3.org/2000/svg">
<g id="tabler:paperclip">
<g id="Group 17">
<g id="Group">
<path id="Vector (Stroke)" fill-rule="evenodd" clip-rule="evenodd" d="M9.99986 2.71429C9.5452 2.71429 9.10917 2.8949 8.78768 3.21639C8.46619 3.53788 8.28557 3.97391 8.28557 4.42857V8.71429C8.28557 9.16894 8.46619 9.60498 8.78768 9.92647C9.10917 10.248 9.5452 10.4286 9.99986 10.4286C10.4545 10.4286 10.8906 10.248 11.212 9.92647C11.5335 9.60498 11.7141 9.16894 11.7141 8.71429V4.42857C11.7141 3.97391 11.5335 3.53788 11.212 3.21639C10.8906 2.8949 10.4545 2.71429 9.99986 2.71429ZM7.57549 2.00421C8.21848 1.36122 9.09055 1 9.99986 1C10.9092 1 11.7812 1.36122 12.4242 2.00421C13.0672 2.64719 13.4284 3.51926 13.4284 4.42857V8.71429C13.4284 9.6236 13.0672 10.4957 12.4242 11.1387C11.7812 11.7816 10.9092 12.1429 9.99986 12.1429C9.09055 12.1429 8.21848 11.7816 7.57549 11.1387C6.93251 10.4957 6.57129 9.6236 6.57129 8.71429V4.42857C6.57129 3.51926 6.93251 2.64719 7.57549 2.00421Z" fill="#1767FA"/>
<path id="Vector (Stroke)_2" fill-rule="evenodd" clip-rule="evenodd" d="M3.99972 7.85742C4.47311 7.85742 4.85686 8.24118 4.85686 8.71456C4.85686 10.0785 5.3987 11.3866 6.36317 12.3511C7.32764 13.3156 8.63575 13.8574 9.99972 13.8574C11.3637 13.8574 12.6718 13.3156 13.6363 12.3511C14.6007 11.3866 15.1426 10.0785 15.1426 8.71456C15.1426 8.24118 15.5263 7.85742 15.9997 7.85742C16.4731 7.85742 16.8569 8.24118 16.8569 8.71456C16.8569 10.5332 16.1344 12.2773 14.8485 13.5633C13.7662 14.6455 12.3594 15.3287 10.8569 15.518V17.286H13.4283C13.9017 17.286 14.2854 17.6697 14.2854 18.1431C14.2854 18.6165 13.9017 19.0003 13.4283 19.0003H6.57115C6.09776 19.0003 5.71401 18.6165 5.71401 18.1431C5.71401 17.6697 6.09776 17.286 6.57115 17.286H9.14258V15.518C7.64001 15.3287 6.23324 14.6455 5.15099 13.5633C3.86502 12.2773 3.14258 10.5332 3.14258 8.71456C3.14258 8.24118 3.52633 7.85742 3.99972 7.85742Z" fill="#1767FA"/>
</g>
</g>
</g>
</svg>
