<svg width="20" height="20" viewBox="0 0 20 20" fill="none" xmlns="http://www.w3.org/2000/svg">
<g id="tabler:paperclip">
<path id="Vector" d="M12.5 5.83241L7.08333 11.2491C6.75181 11.5806 6.56556 12.0302 6.56556 12.4991C6.56556 12.9679 6.75181 13.4176 7.08333 13.7491C7.41485 14.0806 7.86449 14.2668 8.33333 14.2668C8.80217 14.2668 9.25181 14.0806 9.58333 13.7491L15 8.33241C15.663 7.66937 16.0355 6.77009 16.0355 5.83241C16.0355 4.89473 15.663 3.99545 15 3.33241C14.337 2.66937 13.4377 2.29688 12.5 2.29688C11.5623 2.29687 10.663 2.66937 10 3.33241L4.58333 8.74908C3.58877 9.74364 3.03003 11.0926 3.03003 12.4991C3.03003 13.9056 3.58877 15.2545 4.58333 16.2491C5.57789 17.2436 6.92681 17.8024 8.33333 17.8024C9.73985 17.8024 11.0888 17.2436 12.0833 16.2491L17.5 10.8324" stroke="#1767FA" stroke-width="1.5" stroke-linecap="round" stroke-linejoin="round"/>
</g>
</svg>
