<svg width="16" height="16" viewBox="0 0 16 16" fill="none" xmlns="http://www.w3.org/2000/svg">
<g id="tabler:player-pause-filled">
<path id="Vector" d="M5.99967 2.66602H4.66634C4.31272 2.66602 3.97358 2.80649 3.72353 3.05654C3.47348 3.30659 3.33301 3.64573 3.33301 3.99935V11.9993C3.33301 12.353 3.47348 12.6921 3.72353 12.9422C3.97358 13.1922 4.31272 13.3327 4.66634 13.3327H5.99967C6.3533 13.3327 6.69243 13.1922 6.94248 12.9422C7.19253 12.6921 7.33301 12.353 7.33301 11.9993V3.99935C7.33301 3.64573 7.19253 3.30659 6.94248 3.05654C6.69243 2.80649 6.3533 2.66602 5.99967 2.66602ZM11.333 2.66602H9.99967C9.64605 2.66602 9.30691 2.80649 9.05687 3.05654C8.80682 3.30659 8.66634 3.64573 8.66634 3.99935V11.9993C8.66634 12.353 8.80682 12.6921 9.05687 12.9422C9.30691 13.1922 9.64605 13.3327 9.99967 13.3327H11.333C11.6866 13.3327 12.0258 13.1922 12.2758 12.9422C12.5259 12.6921 12.6663 12.353 12.6663 11.9993V3.99935C12.6663 3.64573 12.5259 3.30659 12.2758 3.05654C12.0258 2.80649 11.6866 2.66602 11.333 2.66602Z" fill="#1767FA"/>
</g>
</svg>
