<svg width="28" height="28" viewBox="0 0 28 28" fill="none" xmlns="http://www.w3.org/2000/svg">
<g id="octicon:question-16" clip-path="url(#clip0_555_3274)">
<path id="Vector" d="M0 14C0 10.287 1.475 6.72601 4.10051 4.10051C6.72601 1.475 10.287 0 14 0C17.713 0 21.274 1.475 23.8995 4.10051C26.525 6.72601 28 10.287 28 14C28 17.713 26.525 21.274 23.8995 23.8995C21.274 26.525 17.713 28 14 28C10.287 28 6.72601 26.525 4.10051 23.8995C1.475 21.274 0 17.713 0 14ZM14 2.625C10.9832 2.625 8.08989 3.82343 5.95666 5.95666C3.82343 8.08989 2.625 10.9832 2.625 14C2.625 17.0168 3.82343 19.9101 5.95666 22.0433C8.08989 24.1766 10.9832 25.375 14 25.375C17.0168 25.375 19.9101 24.1766 22.0433 22.0433C24.1766 19.9101 25.375 17.0168 25.375 14C25.375 10.9832 24.1766 8.08989 22.0433 5.95666C19.9101 3.82343 17.0168 2.625 14 2.625ZM12.11 10.6488C11.9545 10.9602 11.6834 11.1971 11.3533 11.3074C11.0231 11.4176 10.6627 11.3922 10.3512 11.2367C10.0398 11.0813 9.80291 10.8084 9.69264 10.4783C9.58237 10.1481 9.60777 9.78768 9.76325 9.47625C10.059 8.883 10.5262 8.2495 11.249 7.7665C11.9788 7.28 12.8958 7 14 7C15.0284 6.99346 16.032 7.31533 16.8647 7.91875C17.745 8.5785 18.375 9.6075 18.375 10.9375C18.375 11.7215 18.1737 12.39 17.7992 12.95C17.4405 13.4873 16.9767 13.8478 16.5882 14.1085C16.3975 14.2345 16.2033 14.35 16.0405 14.4497L16.03 14.4567C15.876 14.5462 15.7243 14.6396 15.575 14.7367C15.3888 14.8485 15.225 14.9939 15.092 15.1655C14.8971 15.4509 14.5976 15.648 14.2583 15.7139C13.9191 15.7798 13.5675 15.7093 13.28 15.5176C12.9924 15.3259 12.7921 15.0285 12.7224 14.69C12.6528 14.3515 12.7195 13.9991 12.908 13.7095C13.23 13.2475 13.643 12.8538 14.119 12.5527C14.2987 12.4361 14.4812 12.3223 14.6667 12.2115L14.679 12.2045C14.854 12.0977 14.9975 12.012 15.1305 11.9228C15.3173 11.8112 15.4817 11.6658 15.6153 11.494C15.68 11.3995 15.75 11.2472 15.75 10.9375C15.757 10.7582 15.7186 10.58 15.6385 10.4194C15.5583 10.2588 15.439 10.121 15.2915 10.0188C14.9122 9.75675 14.4609 9.61914 14 9.625C13.3542 9.625 12.9588 9.7825 12.705 9.95225C12.4483 10.1275 12.243 10.3679 12.11 10.6488ZM15.75 19.25C15.75 19.7141 15.5656 20.1592 15.2374 20.4874C14.9092 20.8156 14.4641 21 14 21C13.5359 21 13.0908 20.8156 12.7626 20.4874C12.4344 20.1592 12.25 19.7141 12.25 19.25C12.25 18.7859 12.4344 18.3408 12.7626 18.0126C13.0908 17.6844 13.5359 17.5 14 17.5C14.4641 17.5 14.9092 17.6844 15.2374 18.0126C15.5656 18.3408 15.75 18.7859 15.75 19.25Z" fill="#1767FA"/>
</g>
<defs>
<clipPath id="clip0_555_3274">
<rect width="28" height="28" fill="white"/>
</clipPath>
</defs>
</svg>
