<svg width="48" height="48" viewBox="0 0 48 48" fill="none" xmlns="http://www.w3.org/2000/svg">
<g id="Capa_1" clip-path="url(#clip0_555_3238)">
<g id="DAViuU.tif">
<g id="Group">
<path id="Vector" d="M36.1004 23.7753C32.2502 23.7753 28.4007 23.7723 24.5505 23.7818C24.2743 23.7824 24.2134 23.7084 24.214 23.441C24.2217 15.7385 24.2217 8.03552 24.2134 0.333102C24.2134 0.0579085 24.2863 -0.000592446 24.5523 4.50223e-06C32.252 0.00776483 39.9518 0.00776483 47.6515 4.50223e-06C47.9199 4.50223e-06 47.9892 0.0620871 47.9892 0.334892C47.9809 8.03731 47.9814 15.7403 47.9892 23.4428C47.9892 23.7138 47.9235 23.783 47.6503 23.7824C43.8007 23.7729 39.9506 23.7759 36.1004 23.7759V23.7753ZM36.1064 5.1648C33.9574 5.1648 31.8091 5.16838 29.6602 5.15943C29.4252 5.15823 29.3607 5.21852 29.3649 5.45432C29.3792 6.32885 29.3792 7.20338 29.3649 8.07791C29.3607 8.31907 29.4175 8.39668 29.6715 8.39429C31.0141 8.38116 32.3572 8.39668 33.7004 8.38116C33.9652 8.37817 34.0214 8.44622 34.0208 8.7047C34.0112 11.9049 34.0172 15.1052 34.0088 18.3054C34.0082 18.5436 34.0507 18.6212 34.3089 18.6176C35.5026 18.6015 36.6964 18.6021 37.8901 18.6176C38.1394 18.6206 38.1961 18.5579 38.1949 18.3114C38.1854 15.1308 38.1932 11.9503 38.1818 8.77037C38.1806 8.47428 38.2338 8.37519 38.556 8.37996C39.8884 8.40086 41.222 8.38414 42.555 8.39369C42.7726 8.39548 42.8431 8.34653 42.8395 8.11611C42.8246 7.23203 42.8228 6.34676 42.8401 5.46268C42.8455 5.203 42.7606 5.15883 42.5227 5.15943C40.3839 5.16838 38.2452 5.1648 36.1064 5.1648Z" fill="#040101"/>
<path id="Vector_2" d="M0.00717634 11.9002C0.00717634 8.04507 0.0107629 4.18998 3.24401e-06 0.334888C-0.000594514 0.0537253 0.0812984 0 0.344312 0.000596948C8.04165 0.00776032 15.7396 0.00776032 23.4369 0C23.7101 0 23.7758 0.069246 23.7758 0.339067C23.7681 8.0397 23.7681 15.7397 23.7758 23.4404C23.7758 23.7191 23.6981 23.7776 23.4315 23.7776C15.7342 23.7705 8.03627 23.7705 0.338932 23.7782C0.0615724 23.7782 3.24404e-06 23.703 0.000601002 23.4356C0.00956738 19.5906 0.00657859 15.7451 0.00657859 11.8996L0.00717634 11.9002ZM18.8372 10.6155C18.8372 8.81692 18.833 7.01772 18.8425 5.21912C18.8437 4.99526 18.7864 4.93855 18.5628 4.94034C17.2202 4.95109 15.8771 4.95407 14.5339 4.93915C14.2697 4.93616 14.2099 5.00242 14.2105 5.26389C14.2207 8.33459 14.2171 11.4059 14.2171 14.4766C14.2171 14.8551 13.9116 15.1619 13.5333 15.1625C12.4686 15.1631 11.4046 15.1625 10.34 15.1625C9.83253 15.1625 9.55756 14.8927 9.55756 14.3948C9.55756 11.3337 9.55577 8.27251 9.56175 5.21195C9.56175 5.01675 9.53306 4.93855 9.30949 4.94034C7.93704 4.95168 6.56399 4.95109 5.19153 4.94034C4.97036 4.93855 4.93689 5.01615 4.93749 5.21255C4.94287 8.81036 4.94287 12.4082 4.93749 16.0054C4.93749 16.1791 4.9883 16.2991 5.11682 16.4167C5.93814 17.1688 6.75348 17.9269 7.56583 18.6887C7.68299 18.7985 7.79956 18.8439 7.96035 18.8433C10.5767 18.8391 13.1925 18.8385 15.8089 18.8439C15.9829 18.8439 16.1036 18.7883 16.2274 18.6725C17.0248 17.924 17.8246 17.1784 18.6333 16.4417C18.7875 16.3009 18.8419 16.1564 18.8408 15.9516C18.8336 14.1727 18.8366 12.3938 18.8366 10.6149L18.8372 10.6155Z" fill="#D2062C"/>
<path id="Vector_3" d="M36.0897 47.9929C32.2503 47.9929 28.4109 47.9893 24.5721 48.0007C24.2744 48.0013 24.2194 47.9159 24.2194 47.6371C24.2272 39.9461 24.2278 32.2544 24.2182 24.5633C24.2182 24.2642 24.3061 24.2135 24.5828 24.2141C32.2712 24.2218 39.9602 24.2224 47.6485 24.2129C47.9456 24.2129 48 24.2953 47.9994 24.5746C47.9916 32.2657 47.9911 39.9574 48.0006 47.6485C48.0006 47.9452 47.9181 48.0007 47.6378 48.0001C43.7888 47.9905 39.9392 47.9935 36.0903 47.9935L36.0897 47.9929ZM29.3775 36.0975C29.3775 38.2531 29.3804 40.4087 29.3727 42.5643C29.3721 42.7708 29.4205 42.8299 29.6327 42.8281C30.8455 42.8174 32.059 42.815 33.2718 42.8293C33.5205 42.8323 33.5594 42.7481 33.557 42.5285C33.5462 41.4957 33.5612 40.4624 33.5462 39.4291C33.5426 39.182 33.6048 39.1181 33.8547 39.1199C35.9426 39.1306 38.0306 39.1253 40.1186 39.1276C40.2716 39.1276 40.3983 39.1103 40.5221 38.9945C41.2316 38.3277 41.9495 37.6693 42.6686 37.0127C42.7792 36.9118 42.8318 36.8085 42.8318 36.6545C42.8264 35.0553 42.8264 33.456 42.8318 31.8562C42.8318 31.7046 42.7894 31.5971 42.677 31.4945C41.9573 30.8384 41.2412 30.1788 40.5292 29.5138C40.4109 29.4034 40.2907 29.3616 40.1305 29.3622C36.6408 29.3657 33.1505 29.3675 29.6608 29.3592C29.4151 29.3586 29.3727 29.438 29.3733 29.6606C29.381 31.8061 29.3781 33.9521 29.3781 36.0975H29.3775Z" fill="#D2062C"/>
<path id="Vector_4" d="M35.8523 32.6065C36.5284 32.6065 37.2045 32.6053 37.8805 32.6065C38.2051 32.6077 38.6618 33.0667 38.663 33.3921C38.6648 33.9681 38.6648 34.5442 38.663 35.1203C38.6624 35.4456 38.2075 35.9124 37.8877 35.913C36.5254 35.9148 35.1637 35.9106 33.8014 35.9172C33.6191 35.9178 33.5432 35.8879 33.5456 35.679C33.5575 34.7358 33.5563 33.792 33.5462 32.8483C33.5444 32.6525 33.5988 32.5981 33.7937 32.6017C34.4793 32.6131 35.1655 32.6065 35.8517 32.6065H35.8523Z" fill="#D2062C"/>
</g>
</g>
</g>
<defs>
<clipPath id="clip0_555_3238">
<rect width="48" height="48" fill="white"/>
</clipPath>
</defs>
</svg>
